<?xml version="1.0" standalone="no"?>
<!DOCTYPE svg PUBLIC "-//W3C//DTD SVG 20010904//EN"
 "http://www.w3.org/TR/2001/REC-SVG-20010904/DTD/svg10.dtd">
<svg version="1.0" xmlns="http://www.w3.org/2000/svg"
 width="200.000000pt" height="200.000000pt" viewBox="0 0 200.000000 200.000000"
 preserveAspectRatio="xMidYMid meet">
<metadata>
Created by potrace 1.11, written by Peter Selinger 2001-2013
</metadata>
<g transform="translate(0.000000,200.000000) scale(0.100000,-0.100000)"
fill="#000000" stroke="none">
<path d="M257 1564 c-1 -1 -36 -4 -77 -8 -91 -8 -146 -20 -165 -36 -9 -7 -15
-29 -15 -52 0 -33 6 -46 33 -72 43 -39 62 -107 58 -201 -8 -182 -7 -193 13
-208 22 -16 55 -11 63 9 4 10 16 6 47 -17 85 -60 244 -88 370 -65 139 27 233
120 281 281 32 104 80 149 149 138 65 -10 91 -42 133 -167 36 -105 97 -181
181 -225 117 -62 360 -39 465 43 28 23 30 23 48 5 23 -23 54 -14 69 21 11 26
7 119 -6 164 -4 10 0 55 6 100 12 72 17 85 48 114 38 37 54 100 32 127 -18 22
-77 35 -187 42 -189 13 -363 6 -465 -16 -24 -6 -54 -12 -68 -14 -14 -3 -61
-12 -105 -21 -128 -25 -180 -25 -310 1 -66 13 -136 26 -155 29 -19 3 -42 7
-50 9 -43 12 -381 28 -393 19z"/>
<path d="M366 685 c4 -8 8 -15 10 -15 2 0 4 7 4 15 0 8 -4 15 -10 15 -5 0 -7
-7 -4 -15z"/>
<path d="M1500 660 c0 -36 -2 -40 -18 -31 -18 10 -50 -2 -64 -23 -14 -20 -9
-94 8 -110 18 -19 55 -21 72 -4 9 9 12 9 12 0 0 -7 9 -12 20 -12 19 0 20 7 20
110 l0 110 -25 0 c-23 0 -25 -4 -25 -40z m-2 -102 c2 -25 -2 -37 -12 -41 -18
-7 -36 20 -29 43 3 8 6 21 9 28 8 25 29 5 32 -30z"/>
<path d="M162 585 c0 -60 3 -105 9 -105 5 0 8 3 8 8 -1 4 -1 25 0 47 l1 41 51
-2 c57 -1 71 -14 64 -56 -3 -15 -1 -30 5 -33 6 -4 10 32 10 101 0 59 -3 104
-7 100 -4 -4 -8 -26 -9 -49 -1 -23 -2 -44 -3 -47 -1 -3 -26 -3 -56 -2 l-55 4
0 43 c0 24 -4 46 -9 49 -4 3 -8 -42 -9 -99z"/>
<path d="M1114 676 c-19 -8 -35 -25 -41 -42 -15 -42 -5 -105 19 -131 29 -31
89 -31 118 -1 27 29 25 48 -5 48 -15 0 -25 -6 -25 -14 0 -20 -25 -27 -46 -12
-20 15 -27 80 -12 109 12 24 49 22 55 -3 3 -13 14 -20 29 -20 39 0 28 42 -17
65 -34 18 -36 18 -75 1z"/>
<path d="M740 651 c0 -11 -8 -22 -17 -24 -17 -4 -17 -5 0 -6 14 -1 17 -11 17
-55 0 -72 7 -86 39 -85 25 0 25 0 4 9 -20 8 -23 16 -23 69 0 48 3 60 18 64 16
4 16 5 0 6 -11 1 -18 9 -18 21 0 11 -4 20 -10 20 -5 0 -10 -9 -10 -19z"/>
<path d="M463 624 c-17 -13 -16 -14 8 -8 35 7 59 -18 59 -61 0 -35 -21 -65
-45 -65 -28 0 -44 29 -41 73 4 44 -2 70 -13 63 -3 -2 -5 -39 -4 -83 2 -118 2
-123 12 -123 5 0 7 15 6 34 l-4 34 38 -5 c32 -4 41 -1 55 18 44 64 -15 167
-71 123z"/>
<path d="M863 629 c-43 -16 -57 -84 -27 -127 12 -18 24 -22 52 -20 21 2 37 9
40 18 5 13 3 13 -11 1 -23 -18 -66 -6 -76 22 -12 31 -8 33 48 32 46 -1 51 1
51 20 0 42 -38 69 -77 54z m55 -34 c11 -25 11 -25 -33 -25 -46 0 -58 13 -33
38 21 21 54 14 66 -13z"/>
<path d="M979 627 c-4 -75 -1 -141 7 -144 10 -3 11 143 1 154 -4 3 -7 -1 -8
-10z"/>
<path d="M1014 625 c-20 -15 -11 -18 20 -6 11 4 15 10 9 14 -5 3 -19 0 -29 -8z"/>
<path d="M1763 632 c-54 -8 -56 -75 -3 -87 31 -7 47 -22 36 -33 -4 -3 -16 -1
-26 6 -27 16 -50 15 -50 -3 0 -19 31 -35 68 -35 28 0 62 26 62 47 0 14 -32 40
-54 44 -24 5 -34 29 -12 29 9 0 16 -4 16 -8 0 -10 34 -9 38 1 6 18 0 26 -25
34 -16 5 -38 7 -50 5z"/>
<path d="M369 628 c-7 -12 -4 -148 2 -148 5 0 9 34 9 75 0 63 -4 86 -11 73z"/>
<path d="M591 608 c-11 -30 -7 -36 45 -58 48 -21 54 -34 25 -50 -20 -10 -51
-4 -63 14 -4 6 -10 8 -13 4 -3 -3 1 -13 10 -22 22 -21 68 -20 88 2 15 16 15
20 2 39 -8 12 -28 24 -44 28 -16 3 -32 13 -36 22 -12 32 47 46 64 16 12 -21
24 -13 15 11 -4 11 -18 16 -45 16 -32 0 -41 -4 -48 -22z"/>
<path d="M1266 608 c-22 -31 -20 -84 4 -108 30 -30 85 -27 106 6 21 32 20 80
-2 105 -25 28 -88 26 -108 -3z m74 -27 c12 -23 -4 -75 -22 -69 -17 6 -26 40
-17 66 10 27 25 28 39 3z"/>
<path d="M1586 608 c-22 -31 -20 -80 5 -107 16 -17 30 -21 62 -19 29 2 42 8
42 18 0 10 -10 15 -27 15 -15 0 -33 6 -39 13 -10 10 -5 12 28 12 51 0 58 9 39
55 -14 32 -19 35 -55 35 -30 0 -44 -6 -55 -22z m74 -29 c0 -5 -9 -9 -20 -9
-19 0 -26 11 -14 23 8 8 34 -3 34 -14z"/>
</g>
</svg>
